<svg width="42" height="42" viewBox="0 0 42 42" fill="none" xmlns="http://www.w3.org/2000/svg">
<path d="M41 21.0004C41.0001 16.8214 39.6911 12.7474 37.257 9.35056C34.8229 5.9537 31.3859 3.40463 27.4287 2.06137C23.4715 0.718109 19.193 0.648138 15.194 1.86128C11.195 3.07443 7.6765 5.50975 5.13261 8.8252C2.58872 12.1407 1.14726 16.1697 1.01069 20.3464C0.874117 24.5231 2.04929 28.6377 4.37116 32.1122C6.69303 35.5868 10.045 38.2468 13.9561 39.7185C17.8673 41.1903 22.1413 41.4 26.1778 40.3181" stroke="black" stroke-width="2" stroke-linecap="round"/>
<path d="M21 29.8891C25.9092 29.8891 29.8889 25.9094 29.8889 21.0002C29.8889 16.091 25.9092 12.1113 21 12.1113C16.0908 12.1113 12.1111 16.091 12.1111 21.0002C12.1111 25.9094 16.0908 29.8891 21 29.8891Z" stroke="black" stroke-width="2"/>
<path d="M29.8889 14.334V24.334C29.8889 25.8074 30.4742 27.2205 31.5161 28.2624C32.558 29.3042 33.971 29.8895 35.4445 29.8895C36.9179 29.8895 38.331 29.3042 39.3728 28.2624C40.4147 27.2205 41 25.8074 41 24.334V21.0007" stroke="black" stroke-width="2" stroke-linecap="round"/>
</svg>
