<svg width="81" height="81" viewBox="0 0 81 81" fill="none" xmlns="http://www.w3.org/2000/svg">
<path d="M3.01582 34.9993L26.1532 11.8219L32.9183 18.627C31.9575 22.0296 33.5187 25.7524 36.641 27.5537V49.7304C34.2392 51.0914 32.638 53.6933 32.638 56.6556C32.638 58.7789 33.4815 60.8152 34.9829 62.3167C36.4844 63.8181 38.5207 64.6616 40.644 64.6616C42.7674 64.6616 44.8037 63.8181 46.3051 62.3167C47.8066 60.8152 48.6501 58.7789 48.6501 56.6556C48.6501 53.6933 47.0489 51.0914 44.647 49.7304V30.2758L52.9333 38.6421C52.6531 39.2425 52.6531 39.923 52.6531 40.6436C52.6531 42.7669 53.4965 44.8032 54.998 46.3047C56.4994 47.8061 58.5357 48.6496 60.6591 48.6496C62.7824 48.6496 64.8187 47.8061 66.3202 46.3047C67.8216 44.8032 68.6651 42.7669 68.6651 40.6436C68.6651 38.5202 67.8216 36.4839 66.3202 34.9825C64.8187 33.481 62.7824 32.6376 60.6591 32.6376C59.9385 32.6376 59.258 32.6376 58.6576 32.9178L48.3698 22.63C48.8669 20.776 48.6742 18.8046 47.8276 17.0819C46.9809 15.3591 45.5379 14.0022 43.7664 13.263C42.0451 12.6225 40.2437 12.4624 38.6425 12.9028L31.8374 6.13768L34.9998 3.01533C38.1222 -0.147038 43.1659 -0.147038 46.2883 3.01533L78.2723 34.9993C81.4346 38.1217 81.4346 43.1654 78.2723 46.2878L46.2883 78.2718C43.1659 81.4342 38.1222 81.4342 34.9998 78.2718L3.01582 46.2878C-0.14655 43.1654 -0.14655 38.1217 3.01582 34.9993Z" fill="#EFA7BD"/>
</svg>
