<svg width="71" height="71" viewBox="0 0 71 71" fill="none" xmlns="http://www.w3.org/2000/svg">
<path d="M35.1641 6.36084C31.3339 6.36084 27.5412 7.11526 24.0025 8.58102C20.4638 10.0468 17.2485 12.1952 14.5402 14.9036C9.07034 20.3734 5.99744 27.792 5.99744 35.5275C5.99744 48.4192 14.3683 59.3567 25.9474 63.2358C27.4058 63.4692 27.8724 62.565 27.8724 61.7775V56.8483C19.7933 58.5983 18.0724 52.94 18.0724 52.94C16.7308 49.5567 14.8349 48.6525 14.8349 48.6525C12.1808 46.8442 15.0391 46.9025 15.0391 46.9025C17.9558 47.1067 19.5016 49.9067 19.5016 49.9067C22.0391 54.34 26.3266 53.0275 27.9891 52.3275C28.2516 50.4317 29.0099 49.1483 29.8266 48.4192C23.3516 47.69 16.5558 45.1817 16.5558 34.0692C16.5558 30.8317 17.6641 28.2358 19.5599 26.165C19.2683 25.4358 18.2474 22.4025 19.8516 18.465C19.8516 18.465 22.3016 17.6775 27.8724 21.44C30.1766 20.7983 32.6849 20.4775 35.1641 20.4775C37.6433 20.4775 40.1516 20.7983 42.4558 21.44C48.0266 17.6775 50.4766 18.465 50.4766 18.465C52.0808 22.4025 51.0599 25.4358 50.7683 26.165C52.6641 28.2358 53.7724 30.8317 53.7724 34.0692C53.7724 45.2108 46.9474 47.6608 40.4433 48.39C41.4933 49.2942 42.4558 51.0733 42.4558 53.7858V61.7775C42.4558 62.565 42.9224 63.4983 44.4099 63.2358C55.9891 59.3275 64.3308 48.4192 64.3308 35.5275C64.3308 31.6973 63.5763 27.9046 62.1106 24.3659C60.6448 20.8272 58.4964 17.6119 55.788 14.9036C53.0797 12.1952 49.8644 10.0468 46.3257 8.58102C42.787 7.11526 38.9943 6.36084 35.1641 6.36084Z" fill="black"/>
</svg>
