<svg width="81" height="81" viewBox="0 0 81 81" fill="none" xmlns="http://www.w3.org/2000/svg">
<path d="M0.390625 0.390625V80.3906H80.3906V0.390625H0.390625ZM43.9278 62.7821C43.9278 70.5678 39.3563 74.1221 32.6963 74.1221C26.6792 74.1221 23.1963 71.0163 21.4106 67.2478L27.5363 63.5506C28.7163 65.6392 29.7878 67.4078 32.3763 67.4078C34.8392 67.4078 36.4106 66.4421 36.4106 62.6763V37.1221H43.9278V62.7821ZM61.7106 74.1221C54.7278 74.1221 50.2106 70.8021 48.0135 66.4421L54.1392 62.9078C55.7478 65.5335 57.8535 67.4792 61.5506 67.4792C64.6563 67.4792 66.6592 65.9249 66.6592 63.7649C66.6592 61.1935 64.6221 60.2821 61.1763 58.7649L59.3021 57.9621C53.8735 55.6592 50.2849 52.7478 50.2849 46.6221C50.2849 40.9792 54.5878 36.6935 61.2849 36.6935C66.0706 36.6935 69.4992 38.3535 71.9649 42.7106L66.1078 46.4621C64.8221 44.1592 63.4278 43.2478 61.2678 43.2478C59.0735 43.2478 57.6792 44.6421 57.6792 46.4621C57.6792 48.7135 59.0735 49.6221 62.3049 51.0335L64.1792 51.8363C70.5735 54.5678 74.1621 57.3735 74.1621 63.6563C74.1621 70.4078 68.8392 74.1192 61.7135 74.1192L61.7106 74.1221Z" fill="#EFA7BD"/>
</svg>
