<svg width="81" height="81" viewBox="0 0 81 81" fill="none" xmlns="http://www.w3.org/2000/svg">
<path d="M40.4438 32.5823C44.2764 32.5823 47.402 36.0761 47.402 40.4434C47.402 44.6026 44.2764 48.138 40.4438 48.138C36.6113 48.138 33.4857 44.6026 33.4857 40.4434C33.4857 36.0761 36.6113 32.5823 40.4438 32.5823ZM23.2159 73.7177C25.5601 75.2982 30.695 72.8858 36.6113 66.6469C34.6764 64.1929 32.7787 61.5309 30.9927 58.7442C27.9944 58.4211 25.0135 57.9213 22.0625 57.2469C20.1648 66.1478 20.8718 72.2619 23.2159 73.7177ZM25.8578 49.8433L24.7787 47.7221C24.3694 48.9283 23.9601 50.1345 23.6997 51.2991C24.7043 51.5487 25.8206 51.7566 26.9741 51.9646L25.8578 49.8433ZM50.1927 46.6823L53.2066 40.4434L50.1927 34.2044C49.0764 32 47.8857 30.0451 46.8066 28.0903C44.7973 27.9655 42.6764 27.9655 40.4438 27.9655C38.2113 27.9655 36.0904 27.9655 34.0811 28.0903C33.002 30.0451 31.8113 32 30.695 34.2044L27.6811 40.4434L30.695 46.6823C31.8113 48.8867 33.002 50.8416 34.0811 52.7964C36.0904 52.9212 38.2113 52.9212 40.4438 52.9212C42.6764 52.9212 44.7973 52.9212 46.8066 52.7964C47.8857 50.8416 49.0764 48.8867 50.1927 46.6823ZM40.4438 18.7319C39.7369 19.6469 38.9927 20.6036 38.2485 21.7266H42.6392C41.895 20.6036 41.1508 19.6469 40.4438 18.7319ZM40.4438 62.1548C41.1508 61.2398 41.895 60.2832 42.6392 59.1602H38.2485C38.9927 60.2832 39.7369 61.2398 40.4438 62.1548ZM57.6345 7.16906C55.3276 5.58853 50.1927 8.00092 44.2764 14.2399C46.2113 16.6938 48.109 19.3558 49.895 22.1425C52.9462 22.4752 55.9601 22.9744 58.8252 23.6398C60.7229 14.739 60.0159 8.62481 57.6345 7.16906ZM55.0299 31.0434L56.109 33.1646C56.5183 31.9584 56.9276 30.7522 57.188 29.5876C56.1834 29.3381 55.0671 29.1301 53.9136 28.9221L55.0299 31.0434ZM60.4252 1.7204C65.895 5.2142 66.4904 14.4062 64.1834 25.1372C73.6345 28.2566 80.4438 33.4142 80.4438 40.4434C80.4438 47.4726 73.6345 52.6301 64.1834 55.7495C66.4904 66.4805 65.895 75.6725 60.4252 79.1663C54.9927 82.6601 47.588 78.6672 40.4438 71.0557C33.2997 78.6672 25.895 82.6601 20.4252 79.1663C14.9927 75.6725 14.3973 66.4805 16.7043 55.7495C7.25315 52.6301 0.443848 47.4726 0.443848 40.4434C0.443848 33.4142 7.25315 28.2566 16.7043 25.1372C14.3973 14.4062 14.9927 5.2142 20.4252 1.7204C25.895 -1.7734 33.2997 2.21951 40.4438 9.83101C47.588 2.21951 54.9927 -1.7734 60.4252 1.7204ZM59.3462 40.4434C60.6113 43.5628 61.7276 46.6823 62.6578 49.8433C70.4718 47.223 74.8625 43.4796 74.8625 40.4434C74.8625 37.4071 70.4718 33.6637 62.6578 31.0434C61.7276 34.2044 60.6113 37.3239 59.3462 40.4434ZM21.5415 40.4434C20.2764 37.3239 19.1601 34.2044 18.2299 31.0434C10.4159 33.6637 6.02524 37.4071 6.02524 40.4434C6.02524 43.4796 10.4159 47.223 18.2299 49.8433C19.1601 46.6823 20.2764 43.5628 21.5415 40.4434ZM55.0299 49.8433L53.9136 51.9646C55.0671 51.7566 56.1834 51.5487 57.188 51.2991C56.9276 50.1345 56.5183 48.9283 56.109 47.7221L55.0299 49.8433ZM44.2764 66.6469C50.1927 72.8858 55.3276 75.2982 57.6345 73.7177C60.0159 72.2619 60.7229 66.1478 58.8252 57.2469C55.9601 57.9124 52.9462 58.4115 49.895 58.7442C48.109 61.5309 46.2113 64.1929 44.2764 66.6469ZM25.8578 31.0434L26.9741 28.9221C25.8206 29.1301 24.7043 29.3381 23.6997 29.5876C23.9601 30.7522 24.3694 31.9584 24.7787 33.1646L25.8578 31.0434ZM36.6113 14.2399C30.695 8.00092 25.5601 5.58853 23.2159 7.16906C20.8718 8.62481 20.1648 14.739 22.0625 23.6398C25.0135 22.9654 27.9944 22.4656 30.9927 22.1425C32.7787 19.3558 34.6764 16.6938 36.6113 14.2399Z" fill="#EFA7BD"/>
</svg>
