<svg width="81" height="81" viewBox="0 0 81 81" fill="none" xmlns="http://www.w3.org/2000/svg">
<g clip-path="url(#clip0_165_116)">
<mask id="mask0_165_116" style="mask-type:luminance" maskUnits="userSpaceOnUse" x="0" y="0" width="81" height="81">
<path d="M0.29126 0.291016L80.2913 0.291016V80.291H0.29126L0.29126 0.291016Z" fill="white"/>
</mask>
<g mask="url(#mask0_165_116)">
<path d="M55.7246 55.5013C58.6746 55.1947 60.9146 52.6247 60.8146 49.5413C60.7647 48.0593 60.1435 46.6541 59.0811 45.6196C58.0187 44.5851 56.5974 44.0017 55.1146 43.9913H54.9079C51.7512 44.0913 49.3079 46.7647 49.4079 49.9513C49.5146 51.4947 50.1246 52.828 51.0412 53.7513C47.5779 60.6413 42.2846 65.6747 34.3412 69.888C28.9479 72.768 23.3479 73.7947 17.7512 73.0747C13.1679 72.458 9.60457 70.4013 7.36457 67.0113C4.1079 61.978 3.80457 56.528 6.55123 51.0813C8.48457 47.178 11.5412 44.298 13.4746 42.8613C12.9503 41.1356 12.5086 39.3858 12.1512 37.618C-2.6121 48.4113 -1.0821 63.0047 3.39123 69.8913C6.75123 75.0313 13.5712 78.218 21.1079 78.218C23.1653 78.2302 25.2164 77.9884 27.2146 77.498C40.2479 74.9313 50.1212 67.118 55.7212 55.5047M73.6379 42.7613C65.9012 33.6147 54.4979 28.578 41.4679 28.578H39.8379C39.3728 27.6535 38.6606 26.8759 37.7803 26.3316C36.9 25.7873 35.8862 25.4976 34.8512 25.4947H34.6446C31.4912 25.598 29.0446 28.2713 29.1479 31.458C29.2479 34.5413 31.7946 37.0047 34.8479 37.0047H35.0546C36.1299 36.9494 37.168 36.5925 38.0499 35.9746C38.9318 35.3568 39.622 34.5031 40.0412 33.5113H41.8746C49.6112 33.5113 56.9412 35.7713 63.5579 40.1913C68.6479 43.5847 72.3146 48.0013 74.3479 53.348C76.0812 57.6613 75.9812 61.8747 74.1479 65.4747C71.2946 70.9213 66.5112 73.9013 60.1979 73.9013C56.1279 73.9013 52.2579 72.668 50.2212 71.7413C48.756 73.0489 47.2275 74.2837 45.6412 75.4413C50.0179 77.498 54.4979 78.628 58.7746 78.628C68.5479 78.628 75.7746 73.1813 78.5246 67.7347C81.4746 61.7747 81.2712 51.498 73.6379 42.7613ZM21.9246 57.248C22.0246 60.3313 24.5712 62.798 27.6246 62.798H27.8279C30.9846 62.698 33.4279 60.0247 33.3279 56.838C33.278 55.356 32.6569 53.9507 31.5945 52.9163C30.532 51.8818 29.1107 51.2984 27.6279 51.288H27.4212C27.179 51.2689 26.9355 51.3031 26.7079 51.388C22.5346 44.4013 20.8046 36.798 21.4146 28.5747C21.8212 22.408 23.8579 17.0647 27.4212 12.6447C30.3746 8.84467 36.0746 6.99467 39.9446 6.89134C50.7346 6.68467 55.3146 20.2513 55.6212 25.698C56.9446 26.0047 59.1846 26.7247 60.7112 27.238C59.4879 10.5913 49.3112 1.95801 39.5346 1.95801C30.3746 1.95801 21.9246 8.63801 18.5646 18.5047C13.8812 31.658 16.9346 44.298 22.6379 54.268C22.1279 54.988 21.8212 56.118 21.9246 57.248Z" fill="#EFA7BD"/>
</g>
</g>
<defs>
<clipPath id="clip0_165_116">
<rect width="80" height="80" fill="white" transform="translate(0.29126 0.291016)"/>
</clipPath>
</defs>
</svg>
