<svg width="41" height="63" viewBox="0 0 41 63" fill="none" xmlns="http://www.w3.org/2000/svg">
<path fill-rule="evenodd" clip-rule="evenodd" d="M9.59152 22.9684C8.46084 22.9684 7.34123 23.1912 6.29662 23.6238C5.25201 24.0565 4.30285 24.6907 3.50334 25.4903C2.70382 26.2898 2.06961 27.2389 1.63692 28.2835C1.20423 29.3282 0.981525 30.4478 0.981525 31.5784C0.981525 32.7091 1.20423 33.8287 1.63692 34.8734C2.06961 35.918 2.70382 36.8671 3.50334 37.6666C4.30285 38.4662 5.25201 39.1004 6.29662 39.5331C7.34123 39.9657 8.46084 40.1884 9.59152 40.1884H18.2015V22.9684H9.59152ZM18.2015 17.9684H9.59152C7.30757 17.9684 5.11716 17.0612 3.50216 15.4462C1.88715 13.8312 0.979857 11.6407 0.979857 9.35678C0.979857 7.07283 1.88715 4.88242 3.50216 3.26742C5.11716 1.65241 7.30757 0.745117 9.59152 0.745117H18.2015V17.9684ZM23.2015 0.745117V17.9684H31.8115C34.0661 17.9241 36.2134 16.9973 37.7922 15.3871C39.371 13.777 40.2554 11.6118 40.2554 9.35678C40.2554 7.10173 39.371 4.93661 37.7922 3.32644C36.2134 1.71627 34.0661 0.789477 31.8115 0.745117H23.2015ZM31.8115 22.9651C29.5515 22.9648 27.382 23.8532 25.7712 25.4384C24.1603 27.0237 23.2374 29.1787 23.2015 31.4384V31.7151C23.2291 33.4118 23.7574 35.0625 24.7201 36.4598C25.6828 37.8572 27.037 38.9389 28.6125 39.5692C30.188 40.1995 31.9146 40.3501 33.5754 40.0023C35.2363 39.6544 36.7573 38.8235 37.9475 37.614C39.1376 36.4045 39.9439 34.8703 40.2649 33.204C40.5859 31.5378 40.4074 29.8138 39.7519 28.2487C39.0963 26.6836 37.9928 25.347 36.5801 24.407C35.1674 23.467 33.5084 22.9653 31.8115 22.9651ZM9.59152 45.1884C7.88783 45.1878 6.2222 45.6924 4.8053 46.6384C3.38841 47.5845 2.2839 48.9295 1.63147 50.5033C0.979032 52.0771 0.807983 53.8091 1.13995 55.4801C1.47192 57.1512 2.292 58.6862 3.49647 59.8912C4.70093 61.0961 6.23567 61.9167 7.90659 62.2494C9.5775 62.582 11.3095 62.4116 12.8836 61.7598C14.4577 61.108 15.8031 60.004 16.7497 58.5874C17.6963 57.1709 18.2015 55.5055 18.2015 53.8018V45.1884H9.59152Z" fill="#EFA7BD"/>
</svg>
