<svg width="50" height="50" viewBox="0 0 50 50" fill="none" xmlns="http://www.w3.org/2000/svg">
<path d="M25.0001 4.16699C22.2642 4.16699 19.5551 4.70586 17.0275 5.75284C14.4999 6.79981 12.2032 8.33438 10.2687 10.2689C6.36168 14.1759 4.16675 19.475 4.16675 25.0003C4.16675 34.2087 10.1459 42.0212 18.4167 44.792C19.4584 44.9587 19.7917 44.3128 19.7917 43.7503V40.2295C14.0209 41.4795 12.7917 37.4378 12.7917 37.4378C11.8334 35.0212 10.4792 34.3753 10.4792 34.3753C8.58342 33.0837 10.6251 33.1253 10.6251 33.1253C12.7084 33.2712 13.8126 35.2712 13.8126 35.2712C15.6251 38.4378 18.6876 37.5003 19.8751 37.0003C20.0626 35.6462 20.6042 34.7295 21.1876 34.2087C16.5626 33.6878 11.7084 31.8962 11.7084 23.9587C11.7084 21.6462 12.5001 19.792 13.8542 18.3128C13.6459 17.792 12.9167 15.6253 14.0626 12.8128C14.0626 12.8128 15.8126 12.2503 19.7917 14.9378C21.4376 14.4795 23.2292 14.2503 25.0001 14.2503C26.7709 14.2503 28.5626 14.4795 30.2084 14.9378C34.1876 12.2503 35.9376 12.8128 35.9376 12.8128C37.0834 15.6253 36.3542 17.792 36.1459 18.3128C37.5001 19.792 38.2917 21.6462 38.2917 23.9587C38.2917 31.917 33.4167 33.667 28.7709 34.1878C29.5209 34.8337 30.2084 36.1045 30.2084 38.042V43.7503C30.2084 44.3128 30.5417 44.9795 31.6042 44.792C39.8751 42.0003 45.8334 34.2087 45.8334 25.0003C45.8334 22.2645 45.2945 19.5554 44.2476 17.0278C43.2006 14.5001 41.666 12.2035 39.7315 10.2689C37.7969 8.33438 35.5003 6.79981 32.9727 5.75284C30.445 4.70586 27.736 4.16699 25.0001 4.16699Z" fill="black"/>
</svg>
