<svg width="70" height="70" viewBox="0 0 70 70" fill="none" xmlns="http://www.w3.org/2000/svg">
<path d="M34.9999 5.8335C31.1697 5.8335 27.377 6.58791 23.8383 8.05368C20.2997 9.51944 17.0843 11.6678 14.376 14.3762C8.90616 19.846 5.83325 27.2647 5.83325 35.0002C5.83325 47.8918 14.2041 58.8293 25.7833 62.7085C27.2416 62.9418 27.7083 62.0377 27.7083 61.2502V56.321C19.6291 58.071 17.9083 52.4127 17.9083 52.4127C16.5666 49.0293 14.6708 48.1252 14.6708 48.1252C12.0166 46.3168 14.8749 46.3752 14.8749 46.3752C17.7916 46.5793 19.3374 49.3793 19.3374 49.3793C21.8749 53.8127 26.1624 52.5002 27.8249 51.8002C28.0874 49.9043 28.8458 48.621 29.6624 47.8918C23.1874 47.1627 16.3916 44.6543 16.3916 33.5418C16.3916 30.3043 17.4999 27.7085 19.3958 25.6377C19.1041 24.9085 18.0833 21.8752 19.6874 17.9377C19.6874 17.9377 22.1374 17.1502 27.7083 20.9127C30.0124 20.271 32.5208 19.9502 34.9999 19.9502C37.4791 19.9502 39.9874 20.271 42.2916 20.9127C47.8624 17.1502 50.3124 17.9377 50.3124 17.9377C51.9166 21.8752 50.8958 24.9085 50.6041 25.6377C52.4999 27.7085 53.6082 30.3043 53.6082 33.5418C53.6082 44.6835 46.7833 47.1335 40.2791 47.8627C41.3291 48.7668 42.2916 50.546 42.2916 53.2585V61.2502C42.2916 62.0377 42.7583 62.971 44.2458 62.7085C55.8249 58.8002 64.1666 47.8918 64.1666 35.0002C64.1666 31.1699 63.4122 27.3772 61.9464 23.8386C60.4806 20.2999 58.3322 17.0846 55.6239 14.3762C52.9155 11.6678 49.7002 9.51944 46.1615 8.05368C42.6229 6.58791 38.8301 5.8335 34.9999 5.8335Z" fill="#EFA7BD"/>
</svg>
