<svg width="50" height="58" viewBox="0 0 50 58" fill="none" xmlns="http://www.w3.org/2000/svg">
<path d="M47.4147 24.4533L8.26339 0.785029C7.44234 0.290336 6.50318 0.0198039 5.54177 0.00104652C4.58037 -0.0177109 3.63113 0.215978 2.79097 0.67826C1.9508 1.14054 1.24978 1.81486 0.759453 2.6324C0.26913 3.44994 0.00706313 4.38141 0 5.33176V52.6682C0.00706313 53.6186 0.26913 54.5501 0.759453 55.3676C1.24978 56.1851 1.9508 56.8595 2.79097 57.3217C3.63113 57.784 4.58037 58.0177 5.54177 57.9989C6.50318 57.9802 7.44234 57.7097 8.26339 57.215L47.4147 33.5467C48.2041 33.0718 48.8566 32.404 49.3094 31.6078C49.7622 30.8115 50 29.9134 50 29C50 28.0866 49.7622 27.1885 49.3094 26.3922C48.8566 25.5959 48.2041 24.9282 47.4147 24.4533ZM6.52159 50.7131V7.28688L42.4338 29L6.52159 50.7131Z" fill="white"/>
</svg>
