<svg width="81" height="81" viewBox="0 0 81 81" fill="none" xmlns="http://www.w3.org/2000/svg">
<path d="M35.5123 35.612C35.5627 36.6241 35.2568 37.6219 34.6478 38.4319C34.0388 39.2418 33.1652 39.8127 32.1789 40.0453C30.4389 40.5592 28.6241 40.7734 26.8123 40.6787C26.3456 40.6787 26.3123 40.3787 26.3123 40.0453V31.5453C26.3123 31.312 26.5456 30.912 26.6789 30.912C28.5857 30.6985 30.5152 30.8226 32.3789 31.2787C33.3169 31.5357 34.1388 32.1055 34.7087 32.8936C35.2785 33.6816 35.562 34.6408 35.5123 35.612Z" fill="#EFA7BD"/>
<path d="M57.3457 7.3457L24.0124 7.3457C19.5921 7.3457 15.3529 9.10165 12.2273 12.2273C9.10165 15.3529 7.3457 19.5921 7.3457 24.0124L7.3457 57.3457C7.3457 61.766 9.10165 66.0052 12.2273 69.1308C15.3529 72.2564 19.5921 74.0124 24.0124 74.0124H57.3457C61.766 74.0124 66.0052 72.2564 69.1308 69.1308C72.2564 66.0052 74.0124 61.766 74.0124 57.3457V24.0124C74.0124 19.5921 72.2564 15.3529 69.1308 12.2273C66.0052 9.10165 61.766 7.3457 57.3457 7.3457ZM37.3457 44.0124C35.6634 45.0808 33.7355 45.7005 31.7457 45.8124H27.279C26.3457 45.8124 26.3457 45.8124 26.3457 46.7124V54.4457C26.3457 55.1124 26.1457 55.3124 25.479 55.3124H21.079C20.4457 55.3124 20.279 55.079 20.279 54.479V26.379C20.279 25.7124 20.279 25.5124 21.1124 25.5124H31.5457C33.4501 25.564 35.3094 26.1034 36.9457 27.079C38.3589 27.8753 39.5354 29.0323 40.3553 30.4319C41.1751 31.8315 41.6089 33.4236 41.6124 35.0457C41.8052 36.7892 41.5081 38.5519 40.7544 40.1359C40.0007 41.7198 38.8202 43.0623 37.3457 44.0124ZM57.079 55.0124C54.1802 56.1418 51.0064 56.3627 47.979 55.6457C47.0701 55.4457 46.1813 55.179 45.3124 54.8457C45.1784 54.7828 45.0606 54.69 44.9681 54.5744C44.8756 54.4589 44.811 54.3236 44.779 54.179V49.1457C45.8457 49.5457 46.8457 50.0124 47.879 50.3457C49.6108 50.8992 51.4444 51.0586 53.2457 50.8124C53.6057 50.7457 53.9501 50.6346 54.279 50.479C54.4744 50.3935 54.6442 50.2588 54.7719 50.088C54.8997 49.9172 54.9809 49.7162 55.0078 49.5047C55.0347 49.2931 55.0062 49.0782 54.9252 48.8809C54.8442 48.6836 54.7135 48.5107 54.5457 48.379C53.7832 47.8512 52.9676 47.4043 52.1124 47.0457C50.7457 46.379 49.3457 45.8457 48.0457 45.079C46.8719 44.508 45.9136 43.5736 45.3131 42.4147C44.7126 41.2557 44.5019 39.9339 44.7124 38.6457C44.8819 37.4059 45.397 36.2388 46.1987 35.2779C47.0004 34.3171 48.0563 33.6013 49.2457 33.2124C51.3895 32.4874 53.677 32.293 55.9124 32.6457C56.979 32.6457 58.0124 33.0457 59.079 33.2457C59.6457 33.2457 59.8457 33.7124 59.8124 34.279V38.179C59.8124 38.9124 59.6457 38.979 58.979 38.7124C56.8971 37.7485 54.5958 37.3573 52.3124 37.579C51.9888 37.6167 51.6736 37.7067 51.379 37.8457C51.1791 37.9242 51.0031 38.0536 50.8685 38.2211C50.7339 38.3885 50.6454 38.5882 50.6117 38.8004C50.578 39.0125 50.6004 39.2298 50.6765 39.4307C50.7526 39.6316 50.8799 39.8091 51.0457 39.9457C52.0101 40.5879 53.0213 41.1435 54.079 41.6124C55.3457 42.2457 56.679 42.7457 57.9124 43.4457C59.0315 43.955 59.9586 44.8086 60.5582 45.882C61.1579 46.9554 61.3988 48.1924 61.2457 49.4124C61.1403 50.6294 60.6889 51.7908 59.9446 52.7595C59.2004 53.7282 58.1945 54.4637 57.0457 54.879L57.079 55.0124Z" fill="#EFA7BD"/>
</svg>
