<svg width="80" height="80" viewBox="0 0 80 80" fill="none" xmlns="http://www.w3.org/2000/svg">
<g clip-path="url(#clip0_280_101)">
<path d="M16 64H8C5.87827 64 3.84344 63.1571 2.34315 61.6569C0.842855 60.1566 0 58.1217 0 56L0 29.3333C0 27.2116 0.842855 25.1768 2.34315 23.6765C3.84344 22.1762 5.87827 21.3333 8 21.3333H42.6667V16H37.3333V10.6667H32V16H21.3333V8C21.3333 5.87827 22.1762 3.84344 23.6765 2.34315C25.1768 0.842855 27.2116 0 29.3333 0L50.6667 0C52.7884 0 54.8232 0.842855 56.3235 2.34315C57.8238 3.84344 58.6667 5.87827 58.6667 8V34.6667C58.6667 35.3739 58.3857 36.0522 57.8856 36.5523C57.3855 37.0524 56.7072 37.3333 56 37.3333H24C21.8783 37.3333 19.8434 38.1762 18.3431 39.6765C16.8429 41.1768 16 43.2116 16 45.3333V64Z" fill="#EFA7BD"/>
<path d="M64 16V34.6667C64 36.7884 63.1572 38.8232 61.6569 40.3235C60.1566 41.8238 58.1218 42.6667 56 42.6667H24C23.2928 42.6667 22.6145 42.9476 22.1144 43.4477C21.6143 43.9478 21.3334 44.6261 21.3334 45.3333V72C21.3334 74.1217 22.1762 76.1566 23.6765 77.6569C25.1768 79.1571 27.2116 80 29.3334 80H50.6667C52.7884 80 54.8233 79.1571 56.3236 77.6569C57.8239 76.1566 58.6667 74.1217 58.6667 72V64H48V69.3333H42.6667V64H37.3334V58.6667H72C74.1218 58.6667 76.1566 57.8238 77.6569 56.3235C79.1572 54.8232 80 52.7884 80 50.6667V24C80 21.8783 79.1572 19.8434 77.6569 18.3431C76.1566 16.8429 74.1218 16 72 16H64Z" fill="#EFA7BD"/>
</g>
<defs>
<clipPath id="clip0_280_101">
<rect width="80" height="80" fill="white"/>
</clipPath>
</defs>
</svg>
