<svg width="80" height="80" viewBox="0 0 80 80" fill="none" xmlns="http://www.w3.org/2000/svg">
<mask id="mask0_165_106" style="mask-type:luminance" maskUnits="userSpaceOnUse" x="0" y="0" width="80" height="80">
<path d="M0 0H80V80H0V0Z" fill="white"/>
</mask>
<g mask="url(#mask0_165_106)">
<path d="M40 0C62 0 80 18 80 40C80 62 62 80 40 80C18 80 0 62 0 40C0 18 18 0 40 0ZM32 53.25C32.5 55.4989 32.5 57.4989 32 59.25L31.75 60C31.75 60.25 31.5 60.5 31.5 60.5C31 61.5 30.5 62.25 29.75 63.25C27.5 65.75 24.25 66.75 22.75 66C21.25 65.25 22 61.5 24.75 58.75C27.75 55.75 31.75 53.75 31.75 53.75L32 53.25ZM65 17C63.25 10 51.5 7.5 40.25 11.5C33.75 14 26.5 17.75 21.25 22.5C15 28.25 14.25 33.25 14.5 35.25C16 42.5 26 47.5 30.25 51C29 51.5 20 56 18 60.75C15.75 65.75 18.25 69.25 20 69.5C25.25 71 30.75 68.25 33.5 64C36.25 59.75 36 54.5 34.75 51.75C36.6947 51.1491 38.762 51.063 40.75 51.5C47.75 52.25 49.25 56.75 48.75 58.5C48.25 60.25 47 61.25 46.5 61.75C46 62 45.75 62.25 46 62.25C46 62.5 46.25 62.5 46.75 62.5C47.25 62.5 50.5 61 50.5 57.5C50.75 53.25 46.5 48.5 39.25 48.5C36.25 48.5 34.25 48.75 33 49.25C33 49 32.75 49 32.75 49C28.25 44.25 20 40.75 20.25 34.25C20.25 32 21.25 25.75 36.25 18.25C48.5 12 58.5 13.75 60.25 17.5C62.75 22.75 55 32.75 42.25 34.25C37.25 34.75 34.75 33 34.25 32.25C33.5 31.5 33.5 31.5 33.25 31.5C32.75 31.75 33 32.25 33.25 32.75C33.75 33.75 35.25 35.5 38 36.5C40.25 37.25 46 37.75 53 35C60.75 32 66.75 23.75 65 16.75V17Z" fill="#EFA7BD"/>
</g>
</svg>
