<svg width="81" height="81" viewBox="0 0 81 81" fill="none" xmlns="http://www.w3.org/2000/svg">
<g clip-path="url(#clip0_165_112)">
<path d="M21.0105 39.3623C20.698 43.297 24.1547 46.1952 26.5138 46.1952C28.8761 46.085 38.0766 38.3317 38.0766 38.3317C42.4038 32.8591 42.4225 30.4256 42.4225 28.513C42.0616 20.0688 26.6772 32.9302 21.0105 39.3623ZM59.0675 36.0939C61.1558 31.6742 58.3463 26.7653 52.235 31.077C47.3787 34.1636 41.0917 40.5133 38.0828 42.9989C36.6872 45.8178 40.225 53.5538 45.8312 49.4692C52.4578 44.6548 57.2969 40.1278 59.0675 36.0939ZM64.755 9.35766L66.1008 0.949219H80.9492V16.2983L75.5075 16.3633L68.9552 38.5561C69.363 46.3886 65.3911 46.5161 64.8838 50.11C63.6086 59.1428 53.5072 66.5338 49.6452 66.5338C47.0694 66.4591 45.1864 63.5069 44.5539 60.9344C51.8164 52.9016 61.5827 46.5889 61.5827 46.5889C62.1925 42.3644 60.8522 41.0194 65.3597 37.4195L69.6609 14.8042C65.9875 12.3784 64.2734 12.4161 64.755 9.35766ZM35.7727 46.8108C39.5386 54.3989 44.98 54.5967 53.4164 44.9359C53.6169 45.8291 53.8364 46.7648 53.4336 49.0117C36.2717 64.3616 20.1077 79.3008 15.1875 80.9492H0.949219V77.1305C3.26484 73.9192 22.2692 58.2444 35.7727 46.8108ZM61.1364 61.503C60.3638 68.0711 54.3755 73.8186 46.3736 80.9492H21.0136L42.393 62.9406C46.0836 71.3398 52.6389 70.1231 61.1366 61.503M31.1461 46.5945L0.949219 72.3327V55.6342L18.7195 41.168C19.6702 46.5525 25.4937 51.2939 31.1461 46.5948" fill="#EFA7BD"/>
</g>
<defs>
<clipPath id="clip0_165_112">
<rect width="80" height="80" fill="white" transform="translate(0.949219 0.949219)"/>
</clipPath>
</defs>
</svg>
