<svg width="80" height="80" viewBox="0 0 80 80" fill="none" xmlns="http://www.w3.org/2000/svg">
<g clip-path="url(#clip0_280_94)">
<mask id="mask0_280_94" style="mask-type:luminance" maskUnits="userSpaceOnUse" x="0" y="0" width="80" height="80">
<path d="M0 0H80V80H0V0Z" fill="white"/>
</mask>
<g mask="url(#mask0_280_94)">
<path d="M78.0967 1.1697e-05H1.9C1.65021 1.13126e-05 1.40287 0.0492665 1.17213 0.144959C0.941397 0.240651 0.731795 0.380902 0.55532 0.557687C0.378845 0.734471 0.238962 0.944319 0.143674 1.17522C0.0483863 1.40613 -0.000435303 1.65355 2.92939e-06 1.90334V78.1C-0.000436181 78.3501 0.0484953 78.5978 0.143991 78.8289C0.239487 79.06 0.379669 79.27 0.556497 79.4468C0.733325 79.6237 0.943322 79.7639 1.17444 79.8594C1.40556 79.9549 1.65326 80.0038 1.90334 80.0033H78.1C78.3501 80.0038 78.5978 79.9549 78.8289 79.8594C79.06 79.7639 79.27 79.6237 79.4468 79.4468C79.6237 79.27 79.7639 79.06 79.8593 78.8289C79.9548 78.5978 80.0038 78.3501 80.0033 78.1V1.90001C80.0033 1.64994 79.954 1.40232 79.8581 1.17137C79.7622 0.940416 79.6216 0.730665 79.4445 0.554146C79.2673 0.377628 79.0571 0.237814 78.8258 0.142723C78.5945 0.0476316 78.3467 -0.000865754 78.0967 1.1697e-05ZM47.62 42.7533H38.0967V72.38H30.4767V42.7533H20.9533V36.19H47.62V42.7533ZM49.7533 70.6867V62.77C49.7533 62.77 54.08 66.03 59.27 66.03C64.46 66.03 64.26 62.6367 64.26 62.17C64.26 57.2467 49.5533 57.2467 49.5533 46.3333C49.5533 31.4933 70.9833 37.35 70.9833 37.35L70.7167 44.4033C70.7167 44.4033 67.1233 42.0067 63.0633 42.0067C59.0033 42.0067 57.54 43.94 57.54 46C57.54 51.3233 72.38 50.7933 72.38 61.5067C72.38 78.0067 49.7533 70.69 49.7533 70.69" fill="#EFA7BD"/>
</g>
</g>
<defs>
<clipPath id="clip0_280_94">
<rect width="80" height="80" fill="white"/>
</clipPath>
</defs>
</svg>
