<svg width="81" height="81" viewBox="0 0 81 81" fill="none" xmlns="http://www.w3.org/2000/svg">
<path d="M28.4997 36.1507L30.2086 7.29406C30.2222 7.06826 30.3106 6.85338 30.4598 6.68322C30.609 6.51305 30.8107 6.39726 31.033 6.35405L58.8422 0.910719C59.0139 0.877034 59.1915 0.887997 59.3577 0.942554C59.524 0.997111 59.6735 1.09343 59.7918 1.22227C59.9101 1.35112 59.9932 1.50816 60.0332 1.67833C60.0733 1.8485 60.0688 2.02609 60.0204 2.19405L54.8203 20.2041C54.7721 20.3717 54.7677 20.5489 54.8076 20.7187C54.8475 20.8886 54.9303 21.0454 55.0481 21.1741C55.166 21.3028 55.3149 21.3992 55.4808 21.4541C55.6466 21.5089 55.8237 21.5204 55.9952 21.4874L63.9655 19.9541C64.153 19.9174 64.347 19.9341 64.5256 20.0021C64.7041 20.0702 64.8599 20.1869 64.9754 20.339C65.0908 20.491 65.1612 20.6724 65.1786 20.8625C65.1959 21.0525 65.1595 21.2436 65.0735 21.4141L42.411 66.5808L42.0005 67.2141C41.9108 67.3562 41.7867 67.4734 41.6397 67.5549C41.4927 67.6365 41.3275 67.6798 41.1594 67.6808C40.5686 67.6808 39.9912 67.1741 40.1414 66.4508L43.7961 48.7807C43.832 48.6077 43.8222 48.4282 43.7678 48.2601C43.7133 48.0919 43.616 47.9407 43.4854 47.8214C43.3549 47.7021 43.1955 47.6187 43.0229 47.5795C42.8504 47.5402 42.6706 47.5464 42.5011 47.5974L37.7183 49.0474C37.549 49.0989 37.3691 49.1056 37.1964 49.0668C37.0237 49.028 36.8641 48.9451 36.7332 48.8261C36.6022 48.7071 36.5045 48.5562 36.4496 48.3881C36.3947 48.2201 36.3845 48.0406 36.4199 47.8674L38.7229 36.6174C38.7578 36.4494 38.7498 36.2754 38.6995 36.1114C38.6492 35.9473 38.5583 35.7986 38.4351 35.679C38.312 35.5594 38.1607 35.4727 37.9951 35.4269C37.8296 35.3812 37.6551 35.3779 37.488 35.4174L29.7447 37.2041C29.5901 37.2395 29.4294 37.2386 29.2753 37.2013C29.1212 37.1639 28.978 37.0913 28.8568 36.9891C28.7357 36.8869 28.6401 36.7579 28.5775 36.6124C28.515 36.4669 28.4872 36.3088 28.4964 36.1507H28.4997ZM78.4842 9.73072L58.5318 13.3574L56.7161 19.6474L63.6484 18.3141C64.1856 18.2071 64.7427 18.2678 65.2443 18.4878C65.7458 18.7078 66.1674 19.0766 66.452 19.5441C66.6935 19.9328 66.8308 20.3771 66.8507 20.8342C66.8706 21.2913 66.7723 21.7458 66.5655 22.1541L43.8996 67.3241L43.8562 67.4074L43.8061 67.4841L43.3989 68.1174C43.1585 68.4942 42.8271 68.8046 42.4352 69.0201C42.0433 69.2356 41.6034 69.3493 41.156 69.3508C40.7511 69.3476 40.3518 69.2559 39.9862 69.0819C39.6206 68.908 39.2976 68.6561 39.04 68.3441C38.79 68.0351 38.6124 67.6742 38.52 67.2878C38.4276 66.9014 38.4228 66.4992 38.506 66.1108L41.9404 49.5074L38.2022 50.6407C37.6909 50.7946 37.1454 50.7937 36.6346 50.6383C36.1238 50.4829 35.6705 50.1798 35.3319 49.7674C35.079 49.4598 34.8983 49.0995 34.803 48.7131C34.7077 48.3266 34.7003 47.9238 34.7812 47.5341L36.8839 37.2674L30.1185 38.8274C29.6605 38.9315 29.1832 38.9146 28.7337 38.7784C28.2843 38.6422 27.8781 38.3914 27.5552 38.0507C27.3035 37.7848 27.1094 37.47 26.9848 37.126C26.8602 36.7819 26.8078 36.4159 26.8309 36.0507L28.1293 14.1507L3.29724 9.71739C2.91464 9.64843 2.52028 9.68996 2.1605 9.83708C1.80071 9.9842 1.49043 10.2308 1.26612 10.548C1.04181 10.8651 0.912778 11.2396 0.894184 11.6274C0.87559 12.0152 0.968205 12.4003 1.16115 12.7374L39.4939 79.8608C39.673 80.1749 39.9324 80.436 40.2457 80.6171C40.5589 80.7982 40.9148 80.8929 41.2768 80.8916C41.6387 80.8902 41.9939 80.7928 42.3057 80.6094C42.6176 80.4259 42.8751 80.1629 43.0518 79.8474L80.6336 12.7307C80.822 12.393 80.9104 12.0088 80.8886 11.6229C80.8668 11.2369 80.7356 10.8651 80.5104 10.5508C80.2851 10.2364 79.9751 9.99241 79.6164 9.84723C79.2576 9.70204 78.865 9.66164 78.4842 9.73072Z" fill="#EFA7BD"/>
</svg>
